<svg width="240" height="85" xmlns="http://www.w3.org/2000/svg">
 <title>Objeto inteligente vectorial</title>

 <g>
  <title>background</title>
  <rect fill="none" id="canvas_background" height="87" width="242" y="-1" x="-1"/>
 </g>
 <g>
  <title>Layer 1</title>
  <path id="svg_1" fill="#bc3087" d="m211.5,0.5a1.94,1.94 0 0 1 1.19,-0.49l26,0a0.7,0.7 0 0 1 0.7,0.7l0,26a1.94,1.94 0 0 1 -0.49,1.19l-4.36,4.36c-0.27,0.27 -0.49,0.18 -0.49,-0.2l0,-25.97a0.7,0.7 0 0 0 -0.7,-0.7l-26,0c-0.38,0 -0.48,-0.22 -0.2,-0.49l4.35,-4.4z"/>
  <path id="svg_2" fill="#bc3087" d="m200.71,11.28a1.94,1.94 0 0 1 1.19,-0.49l26,0a0.7,0.7 0 0 1 0.7,0.7l0,26a1.94,1.94 0 0 1 -0.49,1.19l-4.35,4.41c-0.27,0.27 -0.49,0.18 -0.49,-0.2l0,-26a0.7,0.7 0 0 0 -0.7,-0.7l-26,0c-0.38,0 -0.48,-0.22 -0.2,-0.49l4.34,-4.42z"/>
  <path id="svg_3" fill="#fff" d="m22.39,26.8q3.39,2.33 3.33,7.52l0,14.16a5.61,5.61 0 0 1 -3.54,5.61q-3.54,1.56 -10.09,1.56a15.85,15.85 0 0 1 -8.65,-2.22q-3.44,-2.18 -3.44,-7.34q0,-4.84 2.8,-7.26t7.94,-2.42a17,17 0 0 1 8.85,2.12l0,-2.79q0,-6 -7.26,-6a17.61,17.61 0 0 0 -5.19,0.8a12.35,12.35 0 0 0 -4.31,2.21l0,-5.81a15.27,15.27 0 0 1 4.81,-1.77a29.7,29.7 0 0 1 6.52,-0.71a14.19,14.19 0 0 1 8.23,2.34zm-4.34,23.45a2.07,2.07 0 0 0 1.54,-2.16l0,-5.69a16.52,16.52 0 0 0 -6.61,-1.31a9.11,9.11 0 0 0 -5.1,1.18a4,4 0 0 0 -1.74,3.54a4.1,4.1 0 0 0 2,3.72a8.65,8.65 0 0 0 4.69,1.24a18,18 0 0 0 5.22,-0.52z"/>
  <path id="svg_4" fill="#fff" d="m37.23,53.32a8.13,8.13 0 0 1 -2.31,-6.23l0,-16.84l-4.77,0l0,-5.16l4.78,0l0,-8.23l6.37,0l0,8.23l7.2,0l0,5.13l-7.2,0l0,15.66a5.13,5.13 0 0 0 0.77,3.16a3.27,3.27 0 0 0 2.71,1a7.94,7.94 0 0 0 2,-0.27a6.84,6.84 0 0 0 1.71,-0.68l0,5.49a11.71,11.71 0 0 1 -4.9,0.94a8.89,8.89 0 0 1 -6.36,-2.2z"/>
  <path id="svg_5" fill="#fff" d="m54.22,27.83a26.2,26.2 0 0 1 5.6,-2.18a27.33,27.33 0 0 1 7.85,-1.18a9.49,9.49 0 0 1 4,0.77l0,5a28.53,28.53 0 0 0 -4,-0.24a43.12,43.12 0 0 0 -7.32,0.59l0,24.14l-6.13,0l0,-26.9z"/>
  <path id="svg_6" fill="#fff" d="m76.44,25.29l6.19,0l0.06,29.44l-6.25,0l0,-29.44z"/>
  <path id="svg_7" fill="#fff" d="m96.61,25.32a33.26,33.26 0 0 1 7.29,-0.86q6.19,0 9.14,2.6t2.95,8.08l0,19.59l-6.19,0l0,-18.76q0,-6.19 -7,-6.19a18.6,18.6 0 0 0 -6.43,1.12l0,23.83l-6.23,0l0,-27.2a27.53,27.53 0 0 1 6.47,-2.21z"/>
  <path id="svg_8" fill="#fff" d="m123.44,25.29l6.19,0l0.06,29.44l-6.25,0l0,-29.44z"/>
  <path id="svg_9" fill="#fff" d="m140.56,52.58q-3.45,-3 -3.45,-8.88l0,-18.61l6.19,0l0,17.7q0,3.78 1.68,5.58t5.22,1.8q3.54,0 5.22,-1.8t1.68,-5.58l0,-17.7l6,0l0,18.61q0,5.84 -3.36,8.88t-9.5,3q-6.23,0.04 -9.68,-3z"/>
  <path id="svg_10" fill="#fff" d="m211.65,27.09q2.86,2.6 2.86,8.08l0,19.56l-6.19,0l0,-18.76q0,-6.19 -7,-6.19a10.73,10.73 0 0 0 -5.72,1.59a15.2,15.2 0 0 1 0.41,3.78l0,19.58l-6.19,0l0,-18.76q0,-6.19 -7,-6.19a18.1,18.1 0 0 0 -6.25,1.12l0,23.83l-6.19,0l0,-27.2a27.53,27.53 0 0 1 6.46,-2.21a33.26,33.26 0 0 1 7.29,-0.86q5.78,0 8.61,2.24a23.09,23.09 0 0 1 9.91,-2.24q6.14,0.01 9,2.63z"/>
  <rect id="svg_11" fill="#bc3087" ry="0.7" rx="0.7" height="5.6" width="6.61" y="16.87" x="76.28"/>
  <rect id="svg_12" fill="#bc3087" ry="0.7" rx="0.7" height="5.6" width="6.61" y="16.87" x="123.24"/>
  <text xml:space="preserve" text-anchor="start" font-family="Helvetica, Arial, sans-serif" font-size="16" id="svg_14" y="79.953125" x="56" stroke-opacity="null" stroke-width="0" stroke="null" fill="#ffffff">software solutions</text>
 </g>
</svg>